<svg width="81" height="80" viewBox="0 0 81 80" fill="none" xmlns="http://www.w3.org/2000/svg">
<path d="M40.5003 73.3333C58.9098 73.3333 73.8337 58.4095 73.8337 40C73.8337 21.5905 58.9098 6.66666 40.5003 6.66666C22.0908 6.66666 7.16699 21.5905 7.16699 40C7.16699 58.4095 22.0908 73.3333 40.5003 73.3333Z" stroke="#D9DFE9" stroke-width="4" stroke-linecap="round" stroke-linejoin="round"/>
<path d="M27.1657 10H30.499C23.999 29.4667 23.999 50.5333 30.499 70H27.1657" stroke="#D9DFE9" stroke-width="4" stroke-linecap="round" stroke-linejoin="round"/>
<path d="M50.5 10C57 29.4667 57 50.5333 50.5 70" stroke="#D9DFE9" stroke-width="4" stroke-linecap="round" stroke-linejoin="round"/>
<path d="M10.5 53.3333V50C29.9667 56.5 51.0333 56.5 70.5 50V53.3333" stroke="#D9DFE9" stroke-width="4" stroke-linecap="round" stroke-linejoin="round"/>
<path d="M10.5 30.0003C29.9667 23.5003 51.0333 23.5003 70.5 30.0003" stroke="#D9DFE9" stroke-width="4" stroke-linecap="round" stroke-linejoin="round"/>
</svg>
